name rise49.5252peak65.1548fall88.8305.mot
datacolumns 19
datarows 27
range 23.67990900000000 23.72324000000000
endheader
time	ground_force1_vx	ground_force1_vy	ground_force1_vz	ground_force1_px	ground_force1_py	ground_force1_pz	ground_force2_vx	ground_force2_vy	ground_force2_vz	ground_force2_px	ground_force2_py	ground_force2_pz	ground_torque1_x	ground_torque1_y	ground_torque1_z	ground_torque2_x	ground_torque2_y	ground_torque2_z	
23.67990900000000	60.16044300000000	771.67331799999999	64.27075100000000	0.40531000000000	0.00000000000000	0.13766800000000	0.00000000000000	0.00000000000000	0.00000000000000	0.00000000000000	0.00000000000000	0.00000000000000	0.00000000000000	34.53820800000000	0.00000000000000	0.00000000000000	0.00000000000000	0.00000000000000	
23.68157500000000	59.37899900000000	773.46565699999996	64.23613400000001	0.40408900000000	0.00000000000000	0.13769200000000	0.00000000000000	0.00000000000000	0.00000000000000	0.00000000000000	0.00000000000000	0.00000000000000	0.00000000000000	34.53199600000000	0.00000000000000	0.00000000000000	0.00000000000000	0.00000000000000	
23.68324200000000	58.60965500000000	775.16023700000005	64.20361800000001	0.40287600000000	0.00000000000000	0.13771700000000	0.00000000000000	0.00000000000000	0.00000000000000	0.00000000000000	0.00000000000000	0.00000000000000	0.00000000000000	34.52523400000000	0.00000000000000	0.00000000000000	0.00000000000000	0.00000000000000	
23.68490100000000	57.85301000000000	776.75618199999997	64.17327600000000	0.40166900000000	0.00000000000000	0.13774400000000	0.00000000000000	0.00000000000000	0.00000000000000	0.00000000000000	0.00000000000000	0.00000000000000	0.00000000000000	34.51793300000000	0.00000000000000	0.00000000000000	0.00000000000000	0.00000000000000	
23.68657400000000	57.10955900000000	778.25268300000005	64.14509800000000	0.40047000000000	0.00000000000000	0.13777100000000	0.00000000000000	0.00000000000000	0.00000000000000	0.00000000000000	0.00000000000000	0.00000000000000	0.00000000000000	34.51005500000000	0.00000000000000	0.00000000000000	0.00000000000000	0.00000000000000	
23.68824200000000	56.37969800000000	779.64900899999998	64.11900300000001	0.39927900000000	0.00000000000000	0.13780000000000	0.00000000000000	0.00000000000000	0.00000000000000	0.00000000000000	0.00000000000000	0.00000000000000	0.00000000000000	34.50152100000000	0.00000000000000	0.00000000000000	0.00000000000000	0.00000000000000	
23.68990000000000	55.66373000000000	780.94452600000000	64.09483400000001	0.39809400000000	0.00000000000000	0.13783000000000	0.00000000000000	0.00000000000000	0.00000000000000	0.00000000000000	0.00000000000000	0.00000000000000	0.00000000000000	34.49220900000000	0.00000000000000	0.00000000000000	0.00000000000000	0.00000000000000	
23.69157600000000	54.96186500000000	782.13870199999997	64.07236899999999	0.39691700000000	0.00000000000000	0.13786200000000	0.00000000000000	0.00000000000000	0.00000000000000	0.00000000000000	0.00000000000000	0.00000000000000	0.00000000000000	34.48196300000000	0.00000000000000	0.00000000000000	0.00000000000000	0.00000000000000	
23.69323800000000	54.27422500000000	783.23112300000003	64.05132500000001	0.39574700000000	0.00000000000000	0.13789400000000	0.00000000000000	0.00000000000000	0.00000000000000	0.00000000000000	0.00000000000000	0.00000000000000	0.00000000000000	34.47059100000000	0.00000000000000	0.00000000000000	0.00000000000000	0.00000000000000	
23.69490600000000	53.60084900000000	784.22149999999999	64.03136000000001	0.39458400000000	0.00000000000000	0.13792700000000	0.00000000000000	0.00000000000000	0.00000000000000	0.00000000000000	0.00000000000000	0.00000000000000	0.00000000000000	34.45787300000000	0.00000000000000	0.00000000000000	0.00000000000000	0.00000000000000	
23.69656900000000	52.94169600000000	785.10968100000002	64.01208300000000	0.39342700000000	0.00000000000000	0.13796000000000	0.00000000000000	0.00000000000000	0.00000000000000	0.00000000000000	0.00000000000000	0.00000000000000	0.00000000000000	34.44356000000000	0.00000000000000	0.00000000000000	0.00000000000000	0.00000000000000	
23.69823500000000	52.29665300000000	785.89565900000002	63.99305600000000	0.39227700000000	0.00000000000000	0.13799500000000	0.00000000000000	0.00000000000000	0.00000000000000	0.00000000000000	0.00000000000000	0.00000000000000	0.00000000000000	34.42738400000000	0.00000000000000	0.00000000000000	0.00000000000000	0.00000000000000	
23.69990700000000	51.66553700000000	786.57957899999997	63.97380200000000	0.39113100000000	0.00000000000000	0.13803000000000	0.00000000000000	0.00000000000000	0.00000000000000	0.00000000000000	0.00000000000000	0.00000000000000	0.00000000000000	34.40905600000000	0.00000000000000	0.00000000000000	0.00000000000000	0.00000000000000	
23.70157300000000	51.04809900000000	787.16174699999999	63.95381100000000	0.38999100000000	0.00000000000000	0.13806500000000	0.00000000000000	0.00000000000000	0.00000000000000	0.00000000000000	0.00000000000000	0.00000000000000	0.00000000000000	34.38827300000000	0.00000000000000	0.00000000000000	0.00000000000000	0.00000000000000	
23.70324300000000	50.44403400000000	787.64263300000005	63.93254300000000	0.38885600000000	0.00000000000000	0.13810100000000	0.00000000000000	0.00000000000000	0.00000000000000	0.00000000000000	0.00000000000000	0.00000000000000	0.00000000000000	34.36472100000000	0.00000000000000	0.00000000000000	0.00000000000000	0.00000000000000	
23.70490900000000	49.85298100000000	788.02287899999999	63.90943800000000	0.38772400000000	0.00000000000000	0.13813700000000	0.00000000000000	0.00000000000000	0.00000000000000	0.00000000000000	0.00000000000000	0.00000000000000	0.00000000000000	34.33807900000000	0.00000000000000	0.00000000000000	0.00000000000000	0.00000000000000	
23.70656800000000	49.27453400000000	788.30330100000003	63.88392000000000	0.38659500000000	0.00000000000000	0.13817300000000	0.00000000000000	0.00000000000000	0.00000000000000	0.00000000000000	0.00000000000000	0.00000000000000	0.00000000000000	34.30801900000000	0.00000000000000	0.00000000000000	0.00000000000000	0.00000000000000	
23.70823600000000	48.70824100000000	788.48489400000005	63.85540100000000	0.38546900000000	0.00000000000000	0.13820900000000	0.00000000000000	0.00000000000000	0.00000000000000	0.00000000000000	0.00000000000000	0.00000000000000	0.00000000000000	34.27421800000000	0.00000000000000	0.00000000000000	0.00000000000000	0.00000000000000	
23.70990800000000	48.15361400000000	788.56883300000004	63.82329000000000	0.38434400000000	0.00000000000000	0.13824500000000	0.00000000000000	0.00000000000000	0.00000000000000	0.00000000000000	0.00000000000000	0.00000000000000	0.00000000000000	34.23635100000000	0.00000000000000	0.00000000000000	0.00000000000000	0.00000000000000	
23.71157400000000	47.61013300000000	788.55647199999999	63.78699800000000	0.38322100000000	0.00000000000000	0.13828000000000	0.00000000000000	0.00000000000000	0.00000000000000	0.00000000000000	0.00000000000000	0.00000000000000	0.00000000000000	34.19410300000000	0.00000000000000	0.00000000000000	0.00000000000000	0.00000000000000	
23.71323800000000	47.07725200000000	788.44934799999999	63.74594000000000	0.38209800000000	0.00000000000000	0.13831600000000	0.00000000000000	0.00000000000000	0.00000000000000	0.00000000000000	0.00000000000000	0.00000000000000	0.00000000000000	34.14716700000000	0.00000000000000	0.00000000000000	0.00000000000000	0.00000000000000	
23.71490400000000	46.55440200000000	788.24917800000003	63.69954400000000	0.38097500000000	0.00000000000000	0.13835100000000	0.00000000000000	0.00000000000000	0.00000000000000	0.00000000000000	0.00000000000000	0.00000000000000	0.00000000000000	34.09524900000000	0.00000000000000	0.00000000000000	0.00000000000000	0.00000000000000	
23.71657300000000	46.04099800000000	787.95785500000000	63.64725500000000	0.37985000000000	0.00000000000000	0.13838500000000	0.00000000000000	0.00000000000000	0.00000000000000	0.00000000000000	0.00000000000000	0.00000000000000	0.00000000000000	34.03807000000000	0.00000000000000	0.00000000000000	0.00000000000000	0.00000000000000	
23.71824000000000	45.53644400000000	787.57745100000000	63.58853800000000	0.37872400000000	0.00000000000000	0.13841900000000	0.00000000000000	0.00000000000000	0.00000000000000	0.00000000000000	0.00000000000000	0.00000000000000	0.00000000000000	33.97536800000000	0.00000000000000	0.00000000000000	0.00000000000000	0.00000000000000	
23.71990900000000	45.04013800000000	787.11020699999995	63.52288400000000	0.37759500000000	0.00000000000000	0.13845200000000	0.00000000000000	0.00000000000000	0.00000000000000	0.00000000000000	0.00000000000000	0.00000000000000	0.00000000000000	33.90690400000000	0.00000000000000	0.00000000000000	0.00000000000000	0.00000000000000	
23.72157100000000	44.55147300000000	786.55853200000001	63.44981400000000	0.37646200000000	0.00000000000000	0.13848400000000	0.00000000000000	0.00000000000000	0.00000000000000	0.00000000000000	0.00000000000000	0.00000000000000	0.00000000000000	33.83245900000000	0.00000000000000	0.00000000000000	0.00000000000000	0.00000000000000	
23.72324000000000	44.06984700000000	785.92499499999997	63.36887900000000	0.37532600000000	0.00000000000000	0.13851500000000	0.00000000000000	0.00000000000000	0.00000000000000	0.00000000000000	0.00000000000000	0.00000000000000	0.00000000000000	33.75183900000000	0.00000000000000	0.00000000000000	0.00000000000000	0.00000000000000	
